<svg xmlns="http://www.w3.org/2000/svg" xmlns:xlink="http://www.w3.org/1999/xlink" version="1.1" x="0px" y="0px" width="176.997px" height="172px" viewBox="0 0 176.997 172" enable-background="new 0 0 176.997 172" xml:space="preserve">
<path fill="#FF8300" d="M157.688 78.821l0.002 0L57.397 0.235l0 0l-0.011-0.008l0.001 0.008C55.779 0.1 54.2 0 52.5 0 c-28.995 0-52.5 23.505-52.5 52.5c0 16.9 8 31.9 20.3 41.486L20.294 94l98.937 77.73c0.097 0 0.2 0 0.3 0 l0.05 0.039l-0.007-0.035c1.624 0.2 3.3 0.2 4.9 0.238c28.995 0 52.5-23.504 52.5-52.5 C176.997 103.1 169.5 88.4 157.7 78.821z"/>
<path fill="#55565A" d="M85.149 0.227h91.854v71.974L85.149 0.227z"/>
<path fill="#55565A" d="M0.003 99.693L92.867 172H0.003V99.693z"/>
</svg>
